<svg xmlns="http://www.w3.org/2000/svg" width="256" height="256" viewBox="0 0 100 100"><rect width="100" height="100" rx="0" fill="#000000"></rect><path d="M50.95 81.95Q39.07 81.95 32.72 73.98Q26.38 66.02 26.38 50.00L26.38 50.00Q26.38 33.98 32.72 26.02Q39.07 18.05 50.95 18.05L50.95 18.05Q61.12 18.05 67.37 24.08Q73.63 30.11 73.63 42.08L73.63 42.08L61.84 42.08Q61.84 35.15 58.91 31.55Q55.99 27.95 50.95 27.95L50.95 27.95Q44.65 27.95 41.45 33.13Q38.26 38.30 38.26 47.75L38.26 47.75L38.26 52.25Q38.26 61.70 41.54 66.88Q44.83 72.05 51.31 72.05L51.31 72.05Q56.44 72.05 59.41 68.50Q62.38 64.94 62.38 58.01L62.38 58.01L73.63 58.01Q73.63 69.71 67.42 75.83Q61.21 81.95 50.95 81.95L50.95 81.95Z" fill="#ffffff"></path></svg>